# xmcd
#
# Track frame offsets:
#        150
#        15918
#        36165
#        59225
#        76433
#        101760
#        123445
#        140718
#        154292
#        177615
#        225000
#        247425
#
# Disc length: 3781 seconds
#
# Revision: 0
# Processed by: cddbd v1.5.1PL0 Copyright (c) Steve Scherf et al.
# Submitted via: ExactAudioCopy v0.95b1
#
DISCID=a80ec30c
DTITLE=Death In Vegas  - Scorpio Rising
DYEAR=2002
DGENRE=Techno
TTITLE0=Leather
TTITLE1=Girls
TTITLE2=Hands Around My Throat
TTITLE3=23 Lies
TTITLE4=Scorpio Rising
TTITLE5=Killing Smile
TTITLE6=Natja
TTITLE7=So You Say You Lost Your Baby
TTITLE8=Diving Horses
TTITLE9=Help Yourself
TTITLE10=Xxx
TTITLE11=Hands Around My Throat(Percy X Remix)
EXTD=
EXTT0=
EXTT1=
EXTT2=
EXTT3=
EXTT4=
EXTT5=
EXTT6=
EXTT7=
EXTT8=
EXTT9=
EXTT10=
EXTT11=
PLAYORDER=
